<?xml version="1.0" encoding="UTF-8"?>
<svg xmlns="http://www.w3.org/2000/svg" xmlns:xlink="http://www.w3.org/1999/xlink" width="128pt" height="128pt" viewBox="0 0 128 128" version="1.1">
<g id="surface1">
<path style=" stroke:none;fill-rule:nonzero;fill:rgb(0%,0%,0%);fill-opacity:1;" d="M 64 10.667969 C 93.40625 10.667969 117.332031 34.59375 117.332031 64 C 117.332031 93.40625 93.40625 117.332031 64 117.332031 C 34.59375 117.332031 10.667969 93.40625 10.667969 64 C 10.667969 34.59375 34.59375 10.667969 64 10.667969 Z M 64 0 C 28.65625 0 0 28.65625 0 64 C 0 99.34375 28.65625 128 64 128 C 99.34375 128 128 99.34375 128 64 C 128 28.65625 99.34375 0 64 0 Z M 64 32 C 46.332031 32 32 46.324219 32 64 C 32 78.136719 41.167969 90.132812 53.886719 94.363281 C 55.488281 94.660156 56 93.667969 56 92.820312 L 56 86.863281 C 47.097656 88.800781 45.242188 83.09375 45.242188 83.09375 C 43.792969 79.398438 41.691406 78.410156 41.691406 78.410156 C 38.789062 76.421875 41.910156 76.464844 41.910156 76.464844 C 45.125 76.6875 46.816406 79.765625 46.816406 79.765625 C 49.667969 84.65625 54.296875 83.242188 56.128906 82.425781 C 56.414062 80.355469 57.242188 78.949219 58.160156 78.148438 C 51.050781 77.339844 43.585938 74.59375 43.585938 62.335938 C 43.585938 58.84375 44.832031 55.988281 46.878906 53.75 C 46.550781 52.933594 45.449219 49.675781 47.1875 45.269531 C 47.1875 45.269531 49.878906 44.410156 55.988281 48.550781 C 58.542969 47.839844 61.28125 47.488281 64 47.472656 C 66.71875 47.484375 69.457031 47.839844 72.015625 48.550781 C 78.128906 44.410156 80.804688 45.269531 80.804688 45.269531 C 82.550781 49.675781 81.449219 52.933594 81.125 53.738281 C 83.179688 55.980469 84.414062 58.832031 84.414062 62.324219 C 84.414062 74.617188 76.929688 77.324219 69.800781 78.113281 C 70.953125 79.105469 72 81.050781 72 84.039062 L 72 92.816406 C 72 93.667969 72.511719 94.667969 74.132812 94.351562 C 86.84375 90.121094 96 78.132812 96 64 C 96 46.324219 81.667969 32 64 32 Z M 64 32 "/>
</g>
</svg>
