<?xml version="1.0" encoding="UTF-8"?>
<svg xmlns="http://www.w3.org/2000/svg" xmlns:xlink="http://www.w3.org/1999/xlink" width="128pt" height="128pt" viewBox="0 0 128 128" version="1.1">
<g id="surface1">
<path style=" stroke:none;fill-rule:nonzero;fill:rgb(0%,0%,0%);fill-opacity:1;" d="M 64 0 C 28.65625 0 0 28.65625 0 64 C 0 99.34375 28.65625 128 64 128 C 99.34375 128 128 99.34375 128 64 C 128 28.65625 99.34375 0 64 0 Z M 64 117.332031 C 36.566406 117.332031 13.921875 96.507812 10.996094 69.839844 L 23.71875 73.226562 L 30.945312 46.652344 L 15.507812 41.921875 C 23.925781 23.515625 42.476562 10.667969 64 10.667969 C 85.585938 10.667969 104.171875 23.578125 112.554688 42.058594 L 97.050781 46.644531 L 104.277344 73.222656 L 116.992188 69.835938 C 114.078125 96.507812 91.433594 117.332031 64 117.332031 Z M 59.007812 85.164062 L 55.429688 90 C 54.464844 91.3125 52.382812 91.652344 51.050781 90.667969 C 49.648438 89.644531 49.34375 87.679688 50.378906 86.277344 L 53.953125 81.449219 C 54.988281 80.054688 56.945312 79.753906 58.339844 80.777344 C 59.738281 81.800781 60.042969 83.765625 59.007812 85.164062 Z M 52.675781 80.535156 L 49.078125 85.414062 C 48.121094 86.714844 46.078125 87.046875 44.710938 86.042969 C 43.316406 85.011719 42.992188 83.09375 44.019531 81.703125 L 47.625 76.828125 C 48.644531 75.433594 50.609375 75.128906 52 76.15625 C 53.402344 77.179688 53.710938 79.148438 52.675781 80.535156 Z M 46.351562 75.914062 L 42.773438 80.753906 C 41.800781 82.074219 39.710938 82.394531 38.390625 81.425781 C 36.992188 80.398438 36.6875 78.433594 37.710938 77.039062 L 41.296875 72.203125 C 42.316406 70.804688 44.277344 70.5 45.679688 71.535156 C 47.082031 72.554688 47.375 74.515625 46.351562 75.914062 Z M 90.523438 78.324219 C 91.75 79.546875 91.75 81.535156 90.523438 82.761719 C 89.300781 83.984375 87.308594 83.984375 86.089844 82.761719 L 77.089844 73.761719 C 76.792969 73.464844 76.320312 73.457031 76.011719 73.738281 C 75.679688 74.042969 75.664062 74.558594 75.984375 74.875 L 84.316406 83.210938 C 85.535156 84.4375 85.535156 86.421875 84.316406 87.648438 C 83.09375 88.875 81.105469 88.875 79.878906 87.648438 L 73.105469 80.871094 C 72.800781 80.566406 72.316406 80.566406 72.011719 80.863281 C 71.679688 81.167969 71.679688 81.667969 71.996094 81.984375 L 77.617188 87.605469 C 78.835938 88.832031 78.835938 90.8125 77.617188 92.042969 C 76.394531 93.265625 74.40625 93.265625 73.179688 92.042969 L 70.277344 89.136719 C 71.03125 84.507812 67.625 80.730469 63.472656 80.367188 C 62.367188 77.742188 59.910156 75.988281 57.152344 75.753906 C 56.097656 73.214844 53.664062 71.382812 50.820312 71.128906 C 48.570312 65.761719 41.226562 64.769531 37.707031 69.566406 L 35.75 72.214844 C 33.761719 71.460938 31.605469 70.835938 29.128906 70.257812 L 34.792969 49.433594 C 43.242188 49.359375 49.886719 41.355469 57.679688 46.28125 C 55.125 49.433594 53.039062 51.953125 49.882812 53.796875 C 47.359375 55.269531 46.179688 58.15625 46.945312 60.980469 C 47.910156 64.523438 51.5 66.996094 55.695312 66.996094 C 61.242188 66.996094 66.980469 62.441406 71.347656 59.167969 C 73.914062 61.726562 88.367188 75.945312 90.523438 78.324219 Z M 64.675781 85.398438 C 66.074219 86.414062 66.375 88.382812 65.34375 89.769531 L 61.761719 94.625 C 60.800781 95.9375 58.730469 96.28125 57.375 95.289062 C 55.980469 94.265625 55.679688 92.304688 56.699219 90.90625 L 60.292969 86.054688 C 61.3125 84.675781 63.269531 84.363281 64.675781 85.398438 Z M 93.242188 49.566406 L 99.003906 70.757812 C 96.9375 71.679688 94.875 72.753906 92.71875 74.074219 C 92.71875 74.074219 78.832031 60.367188 74.703125 56.238281 C 72.507812 54.039062 70.988281 53.738281 68.441406 55.785156 C 65.207031 58.394531 61.242188 61.039062 58.320312 62.070312 C 52.582031 64.074219 49.445312 59.1875 52.117188 57.632812 C 57.542969 54.46875 60.1875 49.910156 64.734375 44.753906 C 66 43.316406 67.507812 42.789062 69.039062 42.789062 C 70.710938 42.789062 72.425781 43.414062 73.902344 44.179688 C 80.644531 47.664062 86.785156 50.042969 93.242188 49.566406 Z M 70.492188 91.5625 C 72.65625 93.726562 71.054688 96 68.644531 96 C 68.019531 96 67.332031 95.855469 66.644531 95.5 C 67.683594 94.085938 69.214844 92.203125 69.785156 90.851562 Z M 70.492188 91.5625 "/>
</g>
</svg>
