<?xml version="1.0" encoding="UTF-8"?>
<svg xmlns="http://www.w3.org/2000/svg" xmlns:xlink="http://www.w3.org/1999/xlink" width="128pt" height="128pt" viewBox="0 0 128 128" version="1.1">
<g id="surface1">
<path style=" stroke:none;fill-rule:nonzero;fill:rgb(0%,0%,0%);fill-opacity:1;" d="M 64 10.667969 C 93.417969 10.667969 117.332031 34.582031 117.332031 64 C 117.332031 93.417969 93.417969 117.332031 64 117.332031 C 34.582031 117.332031 10.667969 93.417969 10.667969 64 C 10.667969 34.582031 34.582031 10.667969 64 10.667969 Z M 64 0 C 28.644531 0 0 28.644531 0 64 C 0 99.355469 28.644531 128 64 128 C 99.355469 128 128 99.355469 128 64 C 128 28.644531 99.355469 0 64 0 Z M 53.332031 42.667969 C 53.332031 45.644531 50.957031 48.042969 48 48.042969 C 45.042969 48.042969 42.667969 45.644531 42.667969 42.667969 C 42.667969 39.6875 45.042969 37.292969 48 37.292969 C 50.957031 37.292969 53.332031 39.707031 53.332031 42.667969 Z M 53.332031 53.332031 L 42.667969 53.332031 L 42.667969 85.332031 L 53.332031 85.332031 Z M 69.332031 53.332031 L 58.667969 53.332031 L 58.667969 85.332031 L 69.332031 85.332031 L 69.332031 70.082031 C 69.332031 60.894531 80.019531 60.042969 80.019531 70.082031 L 80.019531 85.332031 L 90.667969 85.332031 L 90.667969 67.417969 C 90.667969 49.894531 73.980469 50.542969 69.332031 59.167969 Z M 69.332031 53.332031 "/>
</g>
</svg>
